<svg width="8" height="9" viewBox="0 0 8 9" fill="none" xmlns="http://www.w3.org/2000/svg">
<path d="M0.727204 3.2728C0.727204 2.4048 1.07201 1.57235 1.68578 0.95858C2.29955 0.344811 3.132 0 4 0C4.868 0 5.70045 0.344811 6.31422 0.95858C6.92798 1.57235 7.2728 2.4048 7.2728 3.2728V4.65755L7.9739 6.41032C7.99601 6.46549 8.00426 6.52524 7.99793 6.58434C7.99159 6.64345 7.97087 6.70009 7.93757 6.74933C7.90427 6.79856 7.8594 6.83888 7.80691 6.86676C7.75441 6.89464 7.69588 6.90922 7.63644 6.90924H0.36356C0.30412 6.90922 0.24559 6.89464 0.193093 6.86676C0.140596 6.83888 0.0957335 6.79856 0.0624319 6.74933C0.0291302 6.70009 0.00840506 6.64345 0.00207081 6.58434C-0.00426343 6.52524 0.00398632 6.46549 0.0260978 6.41032L0.727204 4.65755V3.2728ZM2.59052 7.63652C2.67061 7.94925 2.85271 8.22633 3.108 8.42393C3.36329 8.62152 3.67718 8.72833 4 8.72746C4.68074 8.72746 5.24875 8.26563 5.40948 7.63652H2.59052Z" fill="#F24F4F"/>
</svg>
