<svg width="16" height="16" viewBox="0 0 16 16" fill="none" xmlns="http://www.w3.org/2000/svg">
<rect x="0.5" y="0.5" width="15" height="15" rx="1.5" stroke="#AA7511"/>
<path d="M12.0112 4.27068C12.1956 4.09514 12.4409 3.9981 12.6955 4.00003C12.9501 4.00195 13.1939 4.1027 13.3756 4.281C13.5573 4.45931 13.6626 4.70122 13.6694 4.95571C13.6761 5.21019 13.5837 5.45734 13.4117 5.64499L8.18929 12.1763C8.09949 12.273 7.99111 12.3506 7.87062 12.4045C7.75014 12.4584 7.62002 12.4874 7.48806 12.4898C7.3561 12.4923 7.22501 12.4681 7.10261 12.4187C6.98021 12.3693 6.86903 12.2958 6.77571 12.2024L3.31244 8.73916C3.21599 8.64929 3.13863 8.54092 3.08498 8.4205C3.03133 8.30009 3.00248 8.1701 3.00015 8.03829C2.99783 7.90649 3.02207 7.77556 3.07145 7.65333C3.12082 7.53109 3.1943 7.42006 3.28752 7.32684C3.38074 7.23362 3.49177 7.16014 3.61401 7.11077C3.73624 7.06139 3.86716 7.03715 3.99897 7.03947C4.13078 7.0418 4.26077 7.07065 4.38118 7.1243C4.5016 7.17796 4.60997 7.25531 4.69984 7.35176L7.44062 10.0912L11.9863 4.29947C11.9945 4.2894 12.0032 4.27978 12.0125 4.27068H12.0112Z" fill="#FFA600"/>
</svg>
