<svg width="22" height="18" viewBox="0 0 22 18" fill="none" xmlns="http://www.w3.org/2000/svg">
<path fill-rule="evenodd" clip-rule="evenodd" d="M3 1.61639H4V16.6164H19V17.6164H3V1.61639ZM17.817 4.72939C17.8679 4.771 17.91 4.82223 17.941 4.88014C17.9721 4.93804 17.9914 5.0015 17.9979 5.06689C18.0044 5.13227 17.998 5.19829 17.9789 5.26118C17.9599 5.32407 17.9287 5.38259 17.887 5.43339L13.387 10.9334C13.3428 10.9874 13.2877 11.0315 13.2254 11.0629C13.1631 11.0944 13.0949 11.1124 13.0252 11.1159C12.9555 11.1194 12.8858 11.1082 12.8207 11.0832C12.7556 11.0581 12.6964 11.0197 12.647 10.9704L10.06 8.38339L6.404 13.4104C6.32402 13.5121 6.20774 13.5788 6.07958 13.5966C5.95143 13.6143 5.82138 13.5817 5.71677 13.5056C5.61216 13.4295 5.54113 13.3158 5.51861 13.1883C5.49609 13.0609 5.52383 12.9298 5.596 12.8224L9.596 7.32239C9.63846 7.26391 9.69309 7.21532 9.75613 7.17998C9.81917 7.14464 9.88912 7.12339 9.96117 7.11768C10.0332 7.11198 10.1056 7.12197 10.1735 7.14695C10.2413 7.17193 10.3029 7.21132 10.354 7.26239L12.963 9.87239L17.113 4.79939C17.1546 4.74854 17.2058 4.70639 17.2637 4.67535C17.3217 4.64431 17.3851 4.62499 17.4505 4.61848C17.5159 4.61198 17.5819 4.61843 17.6448 4.63746C17.7077 4.65649 17.7662 4.68773 17.817 4.72939Z" fill="#333333"/>
</svg>
