<svg width="18" height="18" viewBox="0 0 18 18" fill="none" xmlns="http://www.w3.org/2000/svg">
<path d="M5.78574 0H0V5.78574H1.28572V1.28572H5.78574V0Z" fill="#333333"/>
<path d="M0 12.2142V18H5.78574V16.7143H1.28572V12.2142H0Z" fill="#333333"/>
<path d="M18.0002 5.78574V0H12.2145V1.28572H16.7145V5.78574H18.0002Z" fill="#333333"/>
<path d="M12.2145 18H18.0002V12.2142H16.7145V16.7143H12.2145V18Z" fill="#333333"/>
<path d="M15.1011 5.22651L9.31541 2.01221C9.21768 1.95579 9.10682 1.92609 8.99398 1.92609C8.88113 1.92609 8.77027 1.95579 8.67255 2.01221L2.88681 5.22651C2.7899 5.28396 2.70979 5.36587 2.65451 5.46403C2.59922 5.56219 2.5707 5.67315 2.57181 5.7858V12.2144C2.572 12.3283 2.60247 12.4401 2.66007 12.5384C2.71768 12.6367 2.80037 12.7179 2.89967 12.7737L8.6854 15.988C8.78313 16.0444 8.89399 16.0741 9.00683 16.0741C9.11968 16.0741 9.23054 16.0444 9.32826 15.988L15.114 12.7737C15.2109 12.7162 15.291 12.6343 15.3463 12.5362C15.4016 12.438 15.4301 12.327 15.429 12.2144V5.7858C15.4288 5.67189 15.3983 5.56007 15.3407 5.4618C15.2831 5.36353 15.2004 5.28233 15.1011 5.22651ZM9.0004 3.30436L13.4619 5.7858L9.0004 8.26724L4.53896 5.7858L9.0004 3.30436ZM3.85753 6.87866L8.35755 9.37939V14.3358L3.85753 11.8351V6.87866ZM9.64326 14.3358V9.37939L14.1433 6.87866V11.8351L9.64326 14.3358Z" fill="#333333"/>
</svg>
