<svg width="24" height="24" viewBox="0 0 24 24" fill="none" xmlns="http://www.w3.org/2000/svg">
<path d="M4 19V5C4 4.46957 4.21071 3.96086 4.58579 3.58579C4.96086 3.21071 5.46957 3 6 3H19.4C19.5591 3 19.7117 3.06321 19.8243 3.17574C19.9368 3.28826 20 3.44087 20 3.6V16.714" stroke="#4F4F4F" stroke-width="1.5" stroke-linecap="round"/>
<path d="M6 17H20" stroke="#4F4F4F" stroke-width="1.5" stroke-linecap="round"/>
<path d="M6 21H20" stroke="#4F4F4F" stroke-width="1.5" stroke-linecap="round"/>
<path d="M6 21C5.46957 21 4.96086 20.7893 4.58579 20.4142C4.21071 20.0391 4 19.5304 4 19C4 18.4696 4.21071 17.9609 4.58579 17.5858C4.96086 17.2107 5.46957 17 6 17" stroke="#4F4F4F" stroke-width="1.5" stroke-linecap="round" stroke-linejoin="round"/>
<path d="M10 10H14" stroke="#4F4F4F" stroke-width="1.5" stroke-linecap="round"/>
<path d="M12 13.01L12.01 12.999" stroke="#4F4F4F" stroke-width="1.5" stroke-linecap="round" stroke-linejoin="round"/>
<path d="M12 7.01002L12.01 6.99902" stroke="#4F4F4F" stroke-width="1.5" stroke-linecap="round" stroke-linejoin="round"/>
</svg>
