<svg width="40" height="40" viewBox="0 0 40 40" fill="none" xmlns="http://www.w3.org/2000/svg">
<path d="M6.66666 31.6667V8.33333C6.66666 7.44928 7.01785 6.60143 7.64297 5.97631C8.26809 5.35119 9.11593 5 9.99999 5H32.3333C32.5985 5 32.8529 5.10536 33.0404 5.29289C33.228 5.48043 33.3333 5.73478 33.3333 6V27.8567" stroke="#E0E0E0" stroke-width="1.5" stroke-linecap="round"/>
<path d="M10 28.3334H33.3333" stroke="#E0E0E0" stroke-width="1.5" stroke-linecap="round"/>
<path d="M10 35H33.3333" stroke="#E0E0E0" stroke-width="1.5" stroke-linecap="round"/>
<path d="M9.99999 35C9.11593 35 8.26809 34.6488 7.64297 34.0237C7.01785 33.3986 6.66666 32.5508 6.66666 31.6667C6.66666 30.7827 7.01785 29.9348 7.64297 29.3097C8.26809 28.6846 9.11593 28.3334 9.99999 28.3334" stroke="#E0E0E0" stroke-width="1.5" stroke-linecap="round" stroke-linejoin="round"/>
<path d="M16.6667 16.6666H23.3333" stroke="#E0E0E0" stroke-width="1.5" stroke-linecap="round"/>
<path d="M20 21.676L20.01 21.665" stroke="#E0E0E0" stroke-width="1.5" stroke-linecap="round" stroke-linejoin="round"/>
<path d="M20 11.676L20.01 11.665" stroke="#E0E0E0" stroke-width="1.5" stroke-linecap="round" stroke-linejoin="round"/>
</svg>
