<svg width="9" height="9" viewBox="0 0 9 9" fill="none" xmlns="http://www.w3.org/2000/svg">
<path d="M7.60102 1.22832C7.75654 1.08026 7.9635 0.998399 8.17823 1.00002C8.39296 1.00165 8.59866 1.08663 8.75192 1.23703C8.90519 1.38743 8.99403 1.59149 8.99971 1.80615C9.00539 2.02081 8.92745 2.22928 8.78234 2.38757L4.37721 7.89674C4.30146 7.97833 4.21004 8.0438 4.10841 8.08925C4.00678 8.1347 3.89703 8.15918 3.78572 8.16125C3.67441 8.16331 3.56383 8.1429 3.46059 8.10125C3.35734 8.05959 3.26356 7.99755 3.18484 7.91882L0.263544 4.99752C0.182191 4.92172 0.11694 4.8303 0.0716828 4.72873C0.0264258 4.62716 0.00209051 4.51751 0.000128864 4.40633C-0.00183278 4.29515 0.0186195 4.18472 0.0602651 4.08161C0.101911 3.97851 0.163897 3.88485 0.242525 3.80622C0.321154 3.72759 0.414814 3.6656 0.517919 3.62396C0.621023 3.58231 0.73146 3.56186 0.84264 3.56382C0.953821 3.56578 1.06347 3.59012 1.16504 3.63538C1.26661 3.68063 1.35802 3.74588 1.43383 3.82724L3.7457 6.138L7.58004 1.25261C7.58695 1.24411 7.59432 1.236 7.60212 1.22832H7.60102Z" fill="white" fill-opacity="0.8"/>
</svg>
