<svg width="9" height="12" viewBox="0 0 9 12" fill="none" xmlns="http://www.w3.org/2000/svg">
<path d="M2.25 0.375H1.125C0.826631 0.375 0.540484 0.493526 0.329505 0.704505C0.118527 0.915483 0 1.20163 0 1.5V10.5C0 10.7984 0.118527 11.0845 0.329505 11.2955C0.540484 11.5065 0.826631 11.625 1.125 11.625H2.25C2.54837 11.625 2.83452 11.5065 3.0455 11.2955C3.25647 11.0845 3.375 10.7984 3.375 10.5V1.5C3.375 1.20163 3.25647 0.915483 3.0455 0.704505C2.83452 0.493526 2.54837 0.375 2.25 0.375Z" fill="#4F4F4F"/>
<path d="M7.875 0.375H6.75C6.45163 0.375 6.16548 0.493526 5.95451 0.704505C5.74353 0.915483 5.625 1.20163 5.625 1.5V10.5C5.625 10.7984 5.74353 11.0845 5.95451 11.2955C6.16548 11.5065 6.45163 11.625 6.75 11.625H7.875C8.17337 11.625 8.45952 11.5065 8.6705 11.2955C8.88147 11.0845 9 10.7984 9 10.5V1.5C9 1.20163 8.88147 0.915483 8.6705 0.704505C8.45952 0.493526 8.17337 0.375 7.875 0.375Z" fill="#4F4F4F"/>
</svg>
