<svg width="15" height="16" viewBox="0 0 15 16" fill="none" xmlns="http://www.w3.org/2000/svg">
<path d="M1.3737 0C1.19689 0 1.02732 0.070238 0.902294 0.195262C0.777269 0.320287 0.707031 0.489856 0.707031 0.666667C0.707031 0.843478 0.777269 1.01305 0.902294 1.13807C1.02732 1.2631 1.19689 1.33333 1.3737 1.33333H13.3737C13.5505 1.33333 13.7201 1.2631 13.8451 1.13807C13.9701 1.01305 14.0404 0.843478 14.0404 0.666667C14.0404 0.489856 13.9701 0.320287 13.8451 0.195262C13.7201 0.070238 13.5505 0 13.3737 0H1.3737ZM7.8457 2.86133C7.78377 2.79925 7.7102 2.74999 7.62921 2.71638C7.54821 2.68277 7.46139 2.66547 7.3737 2.66547C7.28601 2.66547 7.19918 2.68277 7.11819 2.71638C7.03719 2.74999 6.96362 2.79925 6.9017 2.86133L2.23503 7.528C2.17305 7.58998 2.12388 7.66357 2.09033 7.74456C2.05679 7.82554 2.03952 7.91234 2.03952 8C2.03952 8.08766 2.05679 8.17446 2.09033 8.25545C2.12388 8.33643 2.17305 8.41002 2.23503 8.472C2.29701 8.53398 2.3706 8.58315 2.45159 8.6167C2.53257 8.65024 2.61937 8.66751 2.70703 8.66751C2.79469 8.66751 2.88149 8.65024 2.96248 8.6167C3.04346 8.58315 3.11705 8.53398 3.17903 8.472L6.70703 4.94267V15.3333C6.70703 15.5101 6.77727 15.6797 6.90229 15.8047C7.02732 15.9298 7.19689 16 7.3737 16C7.55051 16 7.72008 15.9298 7.8451 15.8047C7.97013 15.6797 8.04036 15.5101 8.04036 15.3333V4.94267L11.5684 8.472C11.6935 8.59718 11.8633 8.66751 12.0404 8.66751C12.2174 8.66751 12.3872 8.59718 12.5124 8.472C12.6375 8.34682 12.7079 8.17703 12.7079 8C12.7079 7.82297 12.6375 7.65318 12.5124 7.528L7.8457 2.86133Z" fill="#333333"/>
</svg>
