<svg width="24" height="24" viewBox="0 0 24 24" fill="none" xmlns="http://www.w3.org/2000/svg">
<path d="M18.25 3.51C18.4489 3.51 18.6397 3.43098 18.7803 3.29033C18.921 3.14967 19 2.95891 19 2.76C19 2.56108 18.921 2.37032 18.7803 2.22967C18.6397 2.08901 18.4489 2.01 18.25 2.01L5.25 2.006C5.05109 2.006 4.86032 2.08501 4.71967 2.22567C4.57902 2.36632 4.5 2.55708 4.5 2.756C4.5 2.95491 4.57902 3.14567 4.71967 3.28633C4.86032 3.42698 5.05109 3.506 5.25 3.506L18.25 3.51ZM11.648 21.998L11.75 22.005C11.9314 22.005 12.1066 21.9392 12.2432 21.8199C12.3798 21.7005 12.4686 21.5357 12.493 21.356L12.5 21.255L12.499 7.57L16.221 11.29C16.348 11.417 16.5163 11.4942 16.6955 11.5076C16.8746 11.521 17.0525 11.4697 17.197 11.363L17.282 11.29C17.4091 11.1628 17.4863 10.9942 17.4996 10.8149C17.5128 10.6355 17.4611 10.4574 17.354 10.313L17.281 10.229L12.284 5.233C12.157 5.10598 11.9887 5.02875 11.8095 5.01535C11.6304 5.00196 11.4525 5.05328 11.308 5.16L11.223 5.232L6.22 10.23C6.08546 10.3637 6.00655 10.5433 5.99915 10.7328C5.99176 10.9223 6.05642 11.1076 6.18013 11.2513C6.30384 11.3951 6.47741 11.4866 6.6659 11.5075C6.85439 11.5284 7.0438 11.4771 7.196 11.364L7.28 11.291L10.999 7.578L11 21.255C11 21.635 11.282 21.948 11.648 21.998Z" fill="black"/>
</svg>
