<svg width="15" height="20" viewBox="0 0 15 20" fill="none" xmlns="http://www.w3.org/2000/svg">
<path fill-rule="evenodd" clip-rule="evenodd" d="M7.37211 4.31531L0.000890479 0.392975L0 11.1412L3.14849 12.9353V17.607L7.2379 15.2767L14.8371 19.607V8.56276L10.9851 6.51302L10.9847 2.39297L7.37211 4.31531ZM6.30771 4.88169L1.00075 2.05778L1.00005 10.5601L3.14849 11.7843V6.56276L6.30771 4.88169ZM4.14849 12.3541V7.1634L6.83714 5.73273V13.8862L4.14849 12.3541ZM4.14849 13.5051L6.23781 14.6957L4.14849 15.8862V13.5051ZM13.8371 17.8862L8.24782 14.7013L10.9856 13.1412L10.9852 7.64583L13.8371 9.1634V17.8862ZM9.98558 12.5601L9.98513 7.11369L8.00075 6.05778L8.00012 13.6914L9.98558 12.5601ZM8.17791 5.01929L9.98503 5.98088L9.98488 4.05778L8.17791 5.01929Z" fill="#333333"/>
</svg>
